<?xml version="1.0" encoding="UTF-8" standalone="no"?>
<!DOCTYPE svg PUBLIC "-//W3C//DTD SVG 1.1//EN"
 "http://www.w3.org/Graphics/SVG/1.1/DTD/svg11.dtd">
<!-- Generated by graphviz version 5.0.0 (20220707.1540)
 -->
<!-- Title: dependencies Pages: 1 -->
<svg width="332pt" height="247pt"
 viewBox="0.00 0.00 332.00 246.80" xmlns="http://www.w3.org/2000/svg" xmlns:xlink="http://www.w3.org/1999/xlink">
<g id="graph0" class="graph" transform="scale(1 1) rotate(0) translate(4 242.8)">
<title>dependencies</title>
<polygon fill="white" stroke="transparent" points="-4,4 -4,-242.8 328,-242.8 328,4 -4,4"/>
<text text-anchor="middle" x="162" y="-8.2" font-family="sans-serif" font-size="14.00">dependencies</text>
<g id="clust1" class="cluster">
<title>cluster_ConfigurationModule</title>
<polygon fill="none" stroke="black" stroke-dasharray="1,5" points="8,-32.8 8,-230.8 316,-230.8 316,-32.8 8,-32.8"/>
</g>
<g id="clust5" class="cluster">
<title>cluster_ConfigurationModule_exports</title>
<polygon fill="none" stroke="black" points="75,-170.8 75,-222.8 249,-222.8 249,-170.8 75,-170.8"/>
</g>
<g id="clust2" class="cluster">
<title>cluster_ConfigurationModule_declarations</title>
<polygon fill="none" stroke="black" points="138,-40.8 138,-92.8 308,-92.8 308,-40.8 138,-40.8"/>
</g>
<g id="clust4" class="cluster">
<title>cluster_ConfigurationModule_imports</title>
<polygon fill="none" stroke="black" points="16,-40.8 16,-92.8 130,-92.8 130,-40.8 16,-40.8"/>
</g>
<!-- ConfigDetailComponent -->
<g id="node1" class="node">
<title>ConfigDetailComponent</title>
<polygon fill="#ffffb3" stroke="black" points="300.43,-84.8 145.57,-84.8 145.57,-48.8 300.43,-48.8 300.43,-84.8"/>
<text text-anchor="middle" x="223" y="-62.6" font-family="Times,serif" font-size="14.00">ConfigDetailComponent</text>
</g>
<!-- ConfigurationModule -->
<g id="node2" class="node">
<title>ConfigurationModule</title>
<polygon fill="#8dd3c7" stroke="black" points="231.1,-149.8 228.1,-153.8 207.1,-153.8 204.1,-149.8 92.9,-149.8 92.9,-113.8 231.1,-113.8 231.1,-149.8"/>
<text text-anchor="middle" x="162" y="-127.6" font-family="Times,serif" font-size="14.00">ConfigurationModule</text>
</g>
<!-- ConfigDetailComponent&#45;&gt;ConfigurationModule -->
<g id="edge1" class="edge">
<title>ConfigDetailComponent&#45;&gt;ConfigurationModule</title>
<path fill="none" stroke="black" d="M188.42,-84.91C188.42,-84.91 188.42,-103.79 188.42,-103.79"/>
<polygon fill="black" stroke="black" points="184.92,-103.79 188.42,-113.79 191.92,-103.79 184.92,-103.79"/>
</g>
<!-- ConfigDetailComponent  -->
<g id="node4" class="node">
<title>ConfigDetailComponent </title>
<polygon fill="#fb8072" stroke="black" points="240.93,-214.8 83.07,-214.8 83.07,-178.8 240.93,-178.8 240.93,-214.8"/>
<text text-anchor="middle" x="162" y="-192.6" font-family="Times,serif" font-size="14.00">ConfigDetailComponent </text>
</g>
<!-- ConfigurationModule&#45;&gt;ConfigDetailComponent  -->
<g id="edge3" class="edge">
<title>ConfigurationModule&#45;&gt;ConfigDetailComponent </title>
<path fill="none" stroke="black" stroke-dasharray="5,2" d="M162,-149.91C162,-149.91 162,-168.79 162,-168.79"/>
<polygon fill="black" stroke="black" points="158.5,-168.79 162,-178.79 165.5,-168.79 158.5,-168.79"/>
</g>
<!-- SharedModule -->
<g id="node3" class="node">
<title>SharedModule</title>
<polygon fill="#8dd3c7" stroke="black" points="122.43,-84.8 119.43,-88.8 98.43,-88.8 95.43,-84.8 23.57,-84.8 23.57,-48.8 122.43,-48.8 122.43,-84.8"/>
<text text-anchor="middle" x="73" y="-62.6" font-family="Times,serif" font-size="14.00">SharedModule</text>
</g>
<!-- SharedModule&#45;&gt;ConfigurationModule -->
<g id="edge2" class="edge">
<title>SharedModule&#45;&gt;ConfigurationModule</title>
<path fill="none" stroke="black" d="M107.58,-84.91C107.58,-84.91 107.58,-103.79 107.58,-103.79"/>
<polygon fill="black" stroke="black" points="104.08,-103.79 107.58,-113.79 111.08,-103.79 104.08,-103.79"/>
</g>
</g>
</svg>
