<?xml version="1.0" encoding="UTF-8" standalone="no"?>
<!DOCTYPE svg PUBLIC "-//W3C//DTD SVG 1.1//EN"
 "http://www.w3.org/Graphics/SVG/1.1/DTD/svg11.dtd">
<!-- Generated by graphviz version 5.0.0 (20220707.1540)
 -->
<!-- Title: dependencies Pages: 1 -->
<svg width="166pt" height="247pt"
 viewBox="0.00 0.00 166.00 246.80" xmlns="http://www.w3.org/2000/svg" xmlns:xlink="http://www.w3.org/1999/xlink">
<g id="graph0" class="graph" transform="scale(1 1) rotate(0) translate(4 242.8)">
<title>dependencies</title>
<polygon fill="white" stroke="transparent" points="-4,4 -4,-242.8 162,-242.8 162,4 -4,4"/>
<text text-anchor="middle" x="79" y="-8.2" font-family="sans-serif" font-size="14.00">dependencies</text>
<g id="clust1" class="cluster">
<title>cluster_TestingModule</title>
<polygon fill="none" stroke="black" stroke-dasharray="1,5" points="8,-32.8 8,-230.8 150,-230.8 150,-32.8 8,-32.8"/>
</g>
<g id="clust3" class="cluster">
<title>cluster_TestingModule_imports</title>
<polygon fill="none" stroke="black" points="18,-40.8 18,-92.8 140,-92.8 140,-40.8 18,-40.8"/>
</g>
<g id="clust4" class="cluster">
<title>cluster_TestingModule_exports</title>
<polygon fill="none" stroke="black" points="16,-170.8 16,-222.8 142,-222.8 142,-170.8 16,-170.8"/>
</g>
<!-- MaterialModule -->
<g id="node1" class="node">
<title>MaterialModule</title>
<polygon fill="#8dd3c7" stroke="black" points="132.47,-84.8 129.47,-88.8 108.47,-88.8 105.47,-84.8 25.53,-84.8 25.53,-48.8 132.47,-48.8 132.47,-84.8"/>
<text text-anchor="middle" x="79" y="-62.6" font-family="Times,serif" font-size="14.00">MaterialModule</text>
</g>
<!-- TestingModule -->
<g id="node2" class="node">
<title>TestingModule</title>
<polygon fill="#8dd3c7" stroke="black" points="129.55,-149.8 126.55,-153.8 105.55,-153.8 102.55,-149.8 28.45,-149.8 28.45,-113.8 129.55,-113.8 129.55,-149.8"/>
<text text-anchor="middle" x="79" y="-127.6" font-family="Times,serif" font-size="14.00">TestingModule</text>
</g>
<!-- MaterialModule&#45;&gt;TestingModule -->
<g id="edge1" class="edge">
<title>MaterialModule&#45;&gt;TestingModule</title>
<path fill="none" stroke="black" d="M79,-84.91C79,-84.91 79,-103.79 79,-103.79"/>
<polygon fill="black" stroke="black" points="75.5,-103.79 79,-113.79 82.5,-103.79 75.5,-103.79"/>
</g>
<!-- MaterialModule  -->
<g id="node3" class="node">
<title>MaterialModule </title>
<polygon fill="#fb8072" stroke="black" points="134.47,-214.8 23.53,-214.8 23.53,-178.8 134.47,-178.8 134.47,-214.8"/>
<text text-anchor="middle" x="79" y="-192.6" font-family="Times,serif" font-size="14.00">MaterialModule </text>
</g>
<!-- TestingModule&#45;&gt;MaterialModule  -->
<g id="edge2" class="edge">
<title>TestingModule&#45;&gt;MaterialModule </title>
<path fill="none" stroke="black" stroke-dasharray="5,2" d="M79,-149.91C79,-149.91 79,-168.79 79,-168.79"/>
<polygon fill="black" stroke="black" points="75.5,-168.79 79,-178.79 82.5,-168.79 75.5,-168.79"/>
</g>
</g>
</svg>
