<?xml version="1.0" encoding="UTF-8" standalone="no"?>
<!DOCTYPE svg PUBLIC "-//W3C//DTD SVG 1.1//EN"
 "http://www.w3.org/Graphics/SVG/1.1/DTD/svg11.dtd">
<!-- Generated by graphviz version 5.0.0 (20220707.1540)
 -->
<!-- Title: dependencies Pages: 1 -->
<svg width="480pt" height="174pt"
 viewBox="0.00 0.00 480.00 173.80" xmlns="http://www.w3.org/2000/svg" xmlns:xlink="http://www.w3.org/1999/xlink">
<g id="graph0" class="graph" transform="scale(1 1) rotate(0) translate(4 169.8)">
<title>dependencies</title>
<polygon fill="white" stroke="transparent" points="-4,4 -4,-169.8 476,-169.8 476,4 -4,4"/>
<text text-anchor="middle" x="236" y="-8.2" font-family="sans-serif" font-size="14.00">dependencies</text>
<g id="clust1" class="cluster">
<title>cluster_ChooserModule</title>
<polygon fill="none" stroke="black" stroke-dasharray="1,5" points="8,-32.8 8,-157.8 464,-157.8 464,-32.8 8,-32.8"/>
</g>
<g id="clust2" class="cluster">
<title>cluster_ChooserModule_declarations</title>
<polygon fill="none" stroke="black" points="306,-40.8 306,-92.8 456,-92.8 456,-40.8 306,-40.8"/>
</g>
<g id="clust7" class="cluster">
<title>cluster_ChooserModule_providers</title>
<polygon fill="none" stroke="black" points="138,-40.8 138,-92.8 298,-92.8 298,-40.8 138,-40.8"/>
</g>
<g id="clust4" class="cluster">
<title>cluster_ChooserModule_imports</title>
<polygon fill="none" stroke="black" points="16,-40.8 16,-92.8 130,-92.8 130,-40.8 16,-40.8"/>
</g>
<!-- HelixListComponent -->
<g id="node1" class="node">
<title>HelixListComponent</title>
<polygon fill="#ffffb3" stroke="black" points="448.21,-84.8 313.79,-84.8 313.79,-48.8 448.21,-48.8 448.21,-84.8"/>
<text text-anchor="middle" x="381" y="-62.6" font-family="Times,serif" font-size="14.00">HelixListComponent</text>
</g>
<!-- ChooserModule -->
<g id="node2" class="node">
<title>ChooserModule</title>
<polygon fill="#8dd3c7" stroke="black" points="271.21,-149.8 268.21,-153.8 247.21,-153.8 244.21,-149.8 164.79,-149.8 164.79,-113.8 271.21,-113.8 271.21,-149.8"/>
<text text-anchor="middle" x="218" y="-127.6" font-family="Times,serif" font-size="14.00">ChooserModule</text>
</g>
<!-- HelixListComponent&#45;&gt;ChooserModule -->
<g id="edge1" class="edge">
<title>HelixListComponent&#45;&gt;ChooserModule</title>
<path fill="none" stroke="black" d="M381,-84.91C381,-104.14 381,-131.8 381,-131.8 381,-131.8 281.37,-131.8 281.37,-131.8"/>
<polygon fill="black" stroke="black" points="281.37,-128.3 271.37,-131.8 281.37,-135.3 281.37,-128.3"/>
</g>
<!-- SharedModule -->
<g id="node3" class="node">
<title>SharedModule</title>
<polygon fill="#8dd3c7" stroke="black" points="122.43,-84.8 119.43,-88.8 98.43,-88.8 95.43,-84.8 23.57,-84.8 23.57,-48.8 122.43,-48.8 122.43,-84.8"/>
<text text-anchor="middle" x="73" y="-62.6" font-family="Times,serif" font-size="14.00">SharedModule</text>
</g>
<!-- SharedModule&#45;&gt;ChooserModule -->
<g id="edge2" class="edge">
<title>SharedModule&#45;&gt;ChooserModule</title>
<path fill="none" stroke="black" d="M73,-84.91C73,-104.14 73,-131.8 73,-131.8 73,-131.8 154.83,-131.8 154.83,-131.8"/>
<polygon fill="black" stroke="black" points="154.83,-135.3 164.83,-131.8 154.83,-128.3 154.83,-135.3"/>
</g>
<!-- ChooserService -->
<g id="node4" class="node">
<title>ChooserService</title>
<ellipse fill="#fdb462" stroke="black" cx="218" cy="-66.8" rx="72.36" ry="18"/>
<text text-anchor="middle" x="218" y="-62.6" font-family="Times,serif" font-size="14.00">ChooserService</text>
</g>
<!-- ChooserService&#45;&gt;ChooserModule -->
<g id="edge3" class="edge">
<title>ChooserService&#45;&gt;ChooserModule</title>
<path fill="none" stroke="black" d="M218,-84.91C218,-84.91 218,-103.79 218,-103.79"/>
<polygon fill="black" stroke="black" points="214.5,-103.79 218,-113.79 221.5,-103.79 214.5,-103.79"/>
</g>
</g>
</svg>
