<?xml version="1.0" encoding="UTF-8" standalone="no"?>
<!DOCTYPE svg PUBLIC "-//W3C//DTD SVG 1.1//EN"
 "http://www.w3.org/Graphics/SVG/1.1/DTD/svg11.dtd">
<!-- Generated by graphviz version 5.0.0 (20220707.1540)
 -->
<!-- Title: dependencies Pages: 1 -->
<svg width="492pt" height="239pt"
 viewBox="0.00 0.00 492.00 238.80" xmlns="http://www.w3.org/2000/svg" xmlns:xlink="http://www.w3.org/1999/xlink">
<g id="graph0" class="graph" transform="scale(1 1) rotate(0) translate(4 234.8)">
<title>dependencies</title>
<polygon fill="white" stroke="transparent" points="-4,4 -4,-234.8 488,-234.8 488,4 -4,4"/>
<text text-anchor="middle" x="242" y="-8.2" font-family="sans-serif" font-size="14.00">dependencies</text>
<g id="clust1" class="cluster">
<title>cluster_DashboardModule</title>
<polygon fill="none" stroke="black" stroke-dasharray="1,5" points="8,-32.8 8,-222.8 476,-222.8 476,-32.8 8,-32.8"/>
</g>
<g id="clust4" class="cluster">
<title>cluster_DashboardModule_imports</title>
<polygon fill="none" stroke="black" points="354,-105.8 354,-157.8 468,-157.8 468,-105.8 354,-105.8"/>
</g>
<g id="clust3" class="cluster">
<title>cluster_DashboardModule_DashboardComponent_providers</title>
<polygon fill="none" stroke="black" points="16,-40.8 16,-157.8 346,-157.8 346,-40.8 16,-40.8"/>
</g>
<!-- DashboardComponent -->
<g id="node1" class="node">
<title>DashboardComponent</title>
<polygon fill="#ffffb3" stroke="black" points="332.98,-149.8 191.02,-149.8 191.02,-113.8 332.98,-113.8 332.98,-149.8"/>
<text text-anchor="middle" x="262" y="-127.6" font-family="Times,serif" font-size="14.00">DashboardComponent</text>
</g>
<!-- DashboardModule -->
<g id="node2" class="node">
<title>DashboardModule</title>
<polygon fill="#8dd3c7" stroke="black" points="395.2,-214.8 392.2,-218.8 371.2,-218.8 368.2,-214.8 274.8,-214.8 274.8,-178.8 395.2,-178.8 395.2,-214.8"/>
<text text-anchor="middle" x="335" y="-192.6" font-family="Times,serif" font-size="14.00">DashboardModule</text>
</g>
<!-- DashboardComponent&#45;&gt;DashboardModule -->
<g id="edge1" class="edge">
<title>DashboardComponent&#45;&gt;DashboardModule</title>
<path fill="none" stroke="black" d="M303.94,-149.91C303.94,-149.91 303.94,-168.79 303.94,-168.79"/>
<polygon fill="black" stroke="black" points="300.44,-168.79 303.94,-178.79 307.44,-168.79 300.44,-168.79"/>
</g>
<!-- ResourceService -->
<g id="node3" class="node">
<title>ResourceService</title>
<ellipse fill="#fdb462" stroke="black" cx="262" cy="-66.8" rx="75.85" ry="18"/>
<text text-anchor="middle" x="262" y="-62.6" font-family="Times,serif" font-size="14.00">ResourceService</text>
</g>
<!-- ResourceService&#45;&gt;DashboardComponent -->
<g id="edge2" class="edge">
<title>ResourceService&#45;&gt;DashboardComponent</title>
<path fill="none" stroke="black" d="M262,-84.91C262,-84.91 262,-103.79 262,-103.79"/>
<polygon fill="black" stroke="black" points="258.5,-103.79 262,-113.79 265.5,-103.79 258.5,-103.79"/>
</g>
<!-- InstanceService -->
<g id="node4" class="node">
<title>InstanceService</title>
<ellipse fill="#fdb462" stroke="black" cx="96" cy="-66.8" rx="72.33" ry="18"/>
<text text-anchor="middle" x="96" y="-62.6" font-family="Times,serif" font-size="14.00">InstanceService</text>
</g>
<!-- InstanceService&#45;&gt;DashboardComponent -->
<g id="edge3" class="edge">
<title>InstanceService&#45;&gt;DashboardComponent</title>
<path fill="none" stroke="black" d="M96,-84.91C96,-104.14 96,-131.8 96,-131.8 96,-131.8 180.64,-131.8 180.64,-131.8"/>
<polygon fill="black" stroke="black" points="180.64,-135.3 190.64,-131.8 180.64,-128.3 180.64,-135.3"/>
</g>
<!-- SharedModule -->
<g id="node5" class="node">
<title>SharedModule</title>
<polygon fill="#8dd3c7" stroke="black" points="460.43,-149.8 457.43,-153.8 436.43,-153.8 433.43,-149.8 361.57,-149.8 361.57,-113.8 460.43,-113.8 460.43,-149.8"/>
<text text-anchor="middle" x="411" y="-127.6" font-family="Times,serif" font-size="14.00">SharedModule</text>
</g>
<!-- SharedModule&#45;&gt;DashboardModule -->
<g id="edge4" class="edge">
<title>SharedModule&#45;&gt;DashboardModule</title>
<path fill="none" stroke="black" d="M378.44,-149.91C378.44,-149.91 378.44,-168.79 378.44,-168.79"/>
<polygon fill="black" stroke="black" points="374.94,-168.79 378.44,-178.79 381.94,-168.79 374.94,-168.79"/>
</g>
</g>
</svg>
