<?xml version="1.0" encoding="UTF-8" standalone="no"?>
<!DOCTYPE svg PUBLIC "-//W3C//DTD SVG 1.1//EN"
 "http://www.w3.org/Graphics/SVG/1.1/DTD/svg11.dtd">
<!-- Generated by graphviz version 5.0.0 (20220707.1540)
 -->
<!-- Title: dependencies Pages: 1 -->
<svg width="796pt" height="247pt"
 viewBox="0.00 0.00 796.00 246.80" xmlns="http://www.w3.org/2000/svg" xmlns:xlink="http://www.w3.org/1999/xlink">
<g id="graph0" class="graph" transform="scale(1 1) rotate(0) translate(4 242.8)">
<title>dependencies</title>
<polygon fill="white" stroke="transparent" points="-4,4 -4,-242.8 792,-242.8 792,4 -4,4"/>
<text text-anchor="middle" x="394" y="-8.2" font-family="sans-serif" font-size="14.00">dependencies</text>
<g id="clust1" class="cluster">
<title>cluster_ClusterModule</title>
<polygon fill="none" stroke="black" stroke-dasharray="1,5" points="8,-32.8 8,-230.8 780,-230.8 780,-32.8 8,-32.8"/>
</g>
<g id="clust9" class="cluster">
<title>cluster_ClusterModule_providers</title>
<polygon fill="none" stroke="black" points="620,-40.8 620,-92.8 772,-92.8 772,-40.8 620,-40.8"/>
</g>
<g id="clust7" class="cluster">
<title>cluster_ClusterModule_exports</title>
<polygon fill="none" stroke="black" points="219,-170.8 219,-222.8 560,-222.8 560,-170.8 219,-170.8"/>
</g>
<g id="clust2" class="cluster">
<title>cluster_ClusterModule_declarations</title>
<polygon fill="none" stroke="black" points="138,-40.8 138,-92.8 612,-92.8 612,-40.8 138,-40.8"/>
</g>
<g id="clust6" class="cluster">
<title>cluster_ClusterModule_imports</title>
<polygon fill="none" stroke="black" points="16,-40.8 16,-92.8 130,-92.8 130,-40.8 16,-40.8"/>
</g>
<!-- ClusterComponent -->
<g id="node1" class="node">
<title>ClusterComponent</title>
<polygon fill="#ffffb3" stroke="black" points="603.77,-84.8 482.23,-84.8 482.23,-48.8 603.77,-48.8 603.77,-84.8"/>
<text text-anchor="middle" x="543" y="-62.6" font-family="Times,serif" font-size="14.00">ClusterComponent</text>
</g>
<!-- ClusterModule -->
<g id="node4" class="node">
<title>ClusterModule</title>
<polygon fill="#8dd3c7" stroke="black" points="435.99,-149.8 432.99,-153.8 411.99,-153.8 408.99,-149.8 336.01,-149.8 336.01,-113.8 435.99,-113.8 435.99,-149.8"/>
<text text-anchor="middle" x="386" y="-127.6" font-family="Times,serif" font-size="14.00">ClusterModule</text>
</g>
<!-- ClusterComponent&#45;&gt;ClusterModule -->
<g id="edge1" class="edge">
<title>ClusterComponent&#45;&gt;ClusterModule</title>
<path fill="none" stroke="black" d="M516.93,-84.82C516.93,-102.17 516.93,-125.8 516.93,-125.8 516.93,-125.8 446.25,-125.8 446.25,-125.8"/>
<polygon fill="black" stroke="black" points="446.25,-122.3 436.25,-125.8 446.25,-129.3 446.25,-122.3"/>
</g>
<!-- ClusterDetailComponent -->
<g id="node2" class="node">
<title>ClusterDetailComponent</title>
<polygon fill="#ffffb3" stroke="black" points="463.98,-84.8 308.02,-84.8 308.02,-48.8 463.98,-48.8 463.98,-84.8"/>
<text text-anchor="middle" x="386" y="-62.6" font-family="Times,serif" font-size="14.00">ClusterDetailComponent</text>
</g>
<!-- ClusterDetailComponent&#45;&gt;ClusterModule -->
<g id="edge2" class="edge">
<title>ClusterDetailComponent&#45;&gt;ClusterModule</title>
<path fill="none" stroke="black" d="M386,-84.91C386,-84.91 386,-103.79 386,-103.79"/>
<polygon fill="black" stroke="black" points="382.5,-103.79 386,-113.79 389.5,-103.79 382.5,-103.79"/>
</g>
<!-- ClusterListComponent -->
<g id="node3" class="node">
<title>ClusterListComponent</title>
<polygon fill="#ffffb3" stroke="black" points="289.55,-84.8 146.45,-84.8 146.45,-48.8 289.55,-48.8 289.55,-84.8"/>
<text text-anchor="middle" x="218" y="-62.6" font-family="Times,serif" font-size="14.00">ClusterListComponent</text>
</g>
<!-- ClusterListComponent&#45;&gt;ClusterModule -->
<g id="edge3" class="edge">
<title>ClusterListComponent&#45;&gt;ClusterModule</title>
<path fill="none" stroke="black" d="M258.62,-84.82C258.62,-102.17 258.62,-125.8 258.62,-125.8 258.62,-125.8 325.66,-125.8 325.66,-125.8"/>
<polygon fill="black" stroke="black" points="325.66,-129.3 335.66,-125.8 325.66,-122.3 325.66,-129.3"/>
</g>
<!-- ClusterDetailComponent  -->
<g id="node6" class="node">
<title>ClusterDetailComponent </title>
<polygon fill="#fb8072" stroke="black" points="551.98,-214.8 392.02,-214.8 392.02,-178.8 551.98,-178.8 551.98,-214.8"/>
<text text-anchor="middle" x="472" y="-192.6" font-family="Times,serif" font-size="14.00">ClusterDetailComponent </text>
</g>
<!-- ClusterModule&#45;&gt;ClusterDetailComponent  -->
<g id="edge5" class="edge">
<title>ClusterModule&#45;&gt;ClusterDetailComponent </title>
<path fill="none" stroke="black" stroke-dasharray="5,2" d="M414.13,-149.91C414.13,-149.91 414.13,-168.79 414.13,-168.79"/>
<polygon fill="black" stroke="black" points="410.63,-168.79 414.13,-178.79 417.63,-168.79 410.63,-168.79"/>
</g>
<!-- ClusterListComponent  -->
<g id="node7" class="node">
<title>ClusterListComponent </title>
<polygon fill="#fb8072" stroke="black" points="374.55,-214.8 227.45,-214.8 227.45,-178.8 374.55,-178.8 374.55,-214.8"/>
<text text-anchor="middle" x="301" y="-192.6" font-family="Times,serif" font-size="14.00">ClusterListComponent </text>
</g>
<!-- ClusterModule&#45;&gt;ClusterListComponent  -->
<g id="edge6" class="edge">
<title>ClusterModule&#45;&gt;ClusterListComponent </title>
<path fill="none" stroke="black" stroke-dasharray="5,2" d="M355.26,-149.91C355.26,-149.91 355.26,-168.79 355.26,-168.79"/>
<polygon fill="black" stroke="black" points="351.76,-168.79 355.26,-178.79 358.76,-168.79 351.76,-168.79"/>
</g>
<!-- SharedModule -->
<g id="node5" class="node">
<title>SharedModule</title>
<polygon fill="#8dd3c7" stroke="black" points="122.43,-84.8 119.43,-88.8 98.43,-88.8 95.43,-84.8 23.57,-84.8 23.57,-48.8 122.43,-48.8 122.43,-84.8"/>
<text text-anchor="middle" x="73" y="-62.6" font-family="Times,serif" font-size="14.00">SharedModule</text>
</g>
<!-- SharedModule&#45;&gt;ClusterModule -->
<g id="edge4" class="edge">
<title>SharedModule&#45;&gt;ClusterModule</title>
<path fill="none" stroke="black" d="M73,-85.08C73,-106.12 73,-137.8 73,-137.8 73,-137.8 325.71,-137.8 325.71,-137.8"/>
<polygon fill="black" stroke="black" points="325.71,-141.3 335.71,-137.8 325.71,-134.3 325.71,-141.3"/>
</g>
<!-- ClusterService -->
<g id="node8" class="node">
<title>ClusterService</title>
<ellipse fill="#fdb462" stroke="black" cx="696" cy="-66.8" rx="67.78" ry="18"/>
<text text-anchor="middle" x="696" y="-62.6" font-family="Times,serif" font-size="14.00">ClusterService</text>
</g>
<!-- ClusterService&#45;&gt;ClusterModule -->
<g id="edge7" class="edge">
<title>ClusterService&#45;&gt;ClusterModule</title>
<path fill="none" stroke="black" d="M696,-85.08C696,-106.12 696,-137.8 696,-137.8 696,-137.8 446.15,-137.8 446.15,-137.8"/>
<polygon fill="black" stroke="black" points="446.15,-134.3 436.15,-137.8 446.15,-141.3 446.15,-134.3"/>
</g>
</g>
</svg>
