<?xml version="1.0" encoding="UTF-8" standalone="no"?>
<!DOCTYPE svg PUBLIC "-//W3C//DTD SVG 1.1//EN"
 "http://www.w3.org/Graphics/SVG/1.1/DTD/svg11.dtd">
<!-- Generated by graphviz version 5.0.0 (20220707.1540)
 -->
<!-- Title: dependencies Pages: 1 -->
<svg width="1520pt" height="174pt"
 viewBox="0.00 0.00 1520.00 173.80" xmlns="http://www.w3.org/2000/svg" xmlns:xlink="http://www.w3.org/1999/xlink">
<g id="graph0" class="graph" transform="scale(1 1) rotate(0) translate(4 169.8)">
<title>dependencies</title>
<polygon fill="white" stroke="transparent" points="-4,4 -4,-169.8 1516,-169.8 1516,4 -4,4"/>
<text text-anchor="middle" x="756" y="-8.2" font-family="sans-serif" font-size="14.00">dependencies</text>
<g id="clust1" class="cluster">
<title>cluster_ResourceModule</title>
<polygon fill="none" stroke="black" stroke-dasharray="1,5" points="8,-32.8 8,-157.8 1504,-157.8 1504,-32.8 8,-32.8"/>
</g>
<g id="clust2" class="cluster">
<title>cluster_ResourceModule_declarations</title>
<polygon fill="none" stroke="black" points="314,-40.8 314,-92.8 1496,-92.8 1496,-40.8 314,-40.8"/>
</g>
<g id="clust9" class="cluster">
<title>cluster_ResourceModule_imports</title>
<polygon fill="none" stroke="black" points="192,-40.8 192,-92.8 306,-92.8 306,-40.8 192,-40.8"/>
</g>
<g id="clust12" class="cluster">
<title>cluster_ResourceModule_providers</title>
<polygon fill="none" stroke="black" points="16,-40.8 16,-92.8 184,-92.8 184,-40.8 16,-40.8"/>
</g>
<!-- PartitionDetailComponent -->
<g id="node1" class="node">
<title>PartitionDetailComponent</title>
<polygon fill="#ffffb3" stroke="black" points="1487.76,-84.8 1324.24,-84.8 1324.24,-48.8 1487.76,-48.8 1487.76,-84.8"/>
<text text-anchor="middle" x="1406" y="-62.6" font-family="Times,serif" font-size="14.00">PartitionDetailComponent</text>
</g>
<!-- ResourceModule -->
<g id="node7" class="node">
<title>ResourceModule</title>
<polygon fill="#8dd3c7" stroke="black" points="783.64,-149.8 780.64,-153.8 759.64,-153.8 756.64,-149.8 672.36,-149.8 672.36,-113.8 783.64,-113.8 783.64,-149.8"/>
<text text-anchor="middle" x="728" y="-127.6" font-family="Times,serif" font-size="14.00">ResourceModule</text>
</g>
<!-- PartitionDetailComponent&#45;&gt;ResourceModule -->
<g id="edge1" class="edge">
<title>PartitionDetailComponent&#45;&gt;ResourceModule</title>
<path fill="none" stroke="black" d="M1406,-85.09C1406,-107.01 1406,-140.8 1406,-140.8 1406,-140.8 793.77,-140.8 793.77,-140.8"/>
<polygon fill="black" stroke="black" points="793.77,-137.3 783.77,-140.8 793.77,-144.3 793.77,-137.3"/>
</g>
<!-- PartitionListComponent -->
<g id="node2" class="node">
<title>PartitionListComponent</title>
<polygon fill="#ffffb3" stroke="black" points="1305.83,-84.8 1154.17,-84.8 1154.17,-48.8 1305.83,-48.8 1305.83,-84.8"/>
<text text-anchor="middle" x="1230" y="-62.6" font-family="Times,serif" font-size="14.00">PartitionListComponent</text>
</g>
<!-- PartitionListComponent&#45;&gt;ResourceModule -->
<g id="edge2" class="edge">
<title>PartitionListComponent&#45;&gt;ResourceModule</title>
<path fill="none" stroke="black" d="M1230,-84.91C1230,-104.14 1230,-131.8 1230,-131.8 1230,-131.8 794.12,-131.8 794.12,-131.8"/>
<polygon fill="black" stroke="black" points="794.12,-128.3 784.12,-131.8 794.12,-135.3 794.12,-128.3"/>
</g>
<!-- ResourceDetailComponent -->
<g id="node3" class="node">
<title>ResourceDetailComponent</title>
<polygon fill="#ffffb3" stroke="black" points="1136.63,-84.8 969.37,-84.8 969.37,-48.8 1136.63,-48.8 1136.63,-84.8"/>
<text text-anchor="middle" x="1053" y="-62.6" font-family="Times,serif" font-size="14.00">ResourceDetailComponent</text>
</g>
<!-- ResourceDetailComponent&#45;&gt;ResourceModule -->
<g id="edge3" class="edge">
<title>ResourceDetailComponent&#45;&gt;ResourceModule</title>
<path fill="none" stroke="black" d="M1053,-84.83C1053,-101.2 1053,-122.8 1053,-122.8 1053,-122.8 793.87,-122.8 793.87,-122.8"/>
<polygon fill="black" stroke="black" points="793.87,-119.3 783.87,-122.8 793.87,-126.3 793.87,-119.3"/>
</g>
<!-- ResourceDetailForInstanceComponent -->
<g id="node4" class="node">
<title>ResourceDetailForInstanceComponent</title>
<polygon fill="#ffffb3" stroke="black" points="950.72,-84.8 717.28,-84.8 717.28,-48.8 950.72,-48.8 950.72,-84.8"/>
<text text-anchor="middle" x="834" y="-62.6" font-family="Times,serif" font-size="14.00">ResourceDetailForInstanceComponent</text>
</g>
<!-- ResourceDetailForInstanceComponent&#45;&gt;ResourceModule -->
<g id="edge4" class="edge">
<title>ResourceDetailForInstanceComponent&#45;&gt;ResourceModule</title>
<path fill="none" stroke="black" d="M750.48,-84.91C750.48,-84.91 750.48,-103.79 750.48,-103.79"/>
<polygon fill="black" stroke="black" points="746.98,-103.79 750.48,-113.79 753.98,-103.79 746.98,-103.79"/>
</g>
<!-- ResourceListComponent -->
<g id="node5" class="node">
<title>ResourceListComponent</title>
<polygon fill="#ffffb3" stroke="black" points="699.7,-84.8 544.3,-84.8 544.3,-48.8 699.7,-48.8 699.7,-84.8"/>
<text text-anchor="middle" x="622" y="-62.6" font-family="Times,serif" font-size="14.00">ResourceListComponent</text>
</g>
<!-- ResourceListComponent&#45;&gt;ResourceModule -->
<g id="edge5" class="edge">
<title>ResourceListComponent&#45;&gt;ResourceModule</title>
<path fill="none" stroke="black" d="M685.89,-84.91C685.89,-84.91 685.89,-103.79 685.89,-103.79"/>
<polygon fill="black" stroke="black" points="682.39,-103.79 685.89,-113.79 689.39,-103.79 682.39,-103.79"/>
</g>
<!-- ResourceNodeViewerComponent -->
<g id="node6" class="node">
<title>ResourceNodeViewerComponent</title>
<polygon fill="#ffffb3" stroke="black" points="526.45,-84.8 321.55,-84.8 321.55,-48.8 526.45,-48.8 526.45,-84.8"/>
<text text-anchor="middle" x="424" y="-62.6" font-family="Times,serif" font-size="14.00">ResourceNodeViewerComponent</text>
</g>
<!-- ResourceNodeViewerComponent&#45;&gt;ResourceModule -->
<g id="edge6" class="edge">
<title>ResourceNodeViewerComponent&#45;&gt;ResourceModule</title>
<path fill="none" stroke="black" d="M424,-84.83C424,-101.2 424,-122.8 424,-122.8 424,-122.8 662.24,-122.8 662.24,-122.8"/>
<polygon fill="black" stroke="black" points="662.24,-126.3 672.24,-122.8 662.24,-119.3 662.24,-126.3"/>
</g>
<!-- SharedModule -->
<g id="node8" class="node">
<title>SharedModule</title>
<polygon fill="#8dd3c7" stroke="black" points="298.43,-84.8 295.43,-88.8 274.43,-88.8 271.43,-84.8 199.57,-84.8 199.57,-48.8 298.43,-48.8 298.43,-84.8"/>
<text text-anchor="middle" x="249" y="-62.6" font-family="Times,serif" font-size="14.00">SharedModule</text>
</g>
<!-- SharedModule&#45;&gt;ResourceModule -->
<g id="edge7" class="edge">
<title>SharedModule&#45;&gt;ResourceModule</title>
<path fill="none" stroke="black" d="M249,-84.91C249,-104.14 249,-131.8 249,-131.8 249,-131.8 662.12,-131.8 662.12,-131.8"/>
<polygon fill="black" stroke="black" points="662.12,-135.3 672.12,-131.8 662.12,-128.3 662.12,-135.3"/>
</g>
<!-- ResourceService -->
<g id="node9" class="node">
<title>ResourceService</title>
<ellipse fill="#fdb462" stroke="black" cx="100" cy="-66.8" rx="75.85" ry="18"/>
<text text-anchor="middle" x="100" y="-62.6" font-family="Times,serif" font-size="14.00">ResourceService</text>
</g>
<!-- ResourceService&#45;&gt;ResourceModule -->
<g id="edge8" class="edge">
<title>ResourceService&#45;&gt;ResourceModule</title>
<path fill="none" stroke="black" d="M100,-85.09C100,-107.01 100,-140.8 100,-140.8 100,-140.8 662.27,-140.8 662.27,-140.8"/>
<polygon fill="black" stroke="black" points="662.27,-144.3 672.27,-140.8 662.27,-137.3 662.27,-144.3"/>
</g>
</g>
</svg>
