<?xml version="1.0" encoding="UTF-8" standalone="no"?>
<!DOCTYPE svg PUBLIC "-//W3C//DTD SVG 1.1//EN"
 "http://www.w3.org/Graphics/SVG/1.1/DTD/svg11.dtd">
<!-- Generated by graphviz version 5.0.0 (20220707.1540)
 -->
<!-- Title: dependencies Pages: 1 -->
<svg width="676pt" height="174pt"
 viewBox="0.00 0.00 676.00 173.80" xmlns="http://www.w3.org/2000/svg" xmlns:xlink="http://www.w3.org/1999/xlink">
<g id="graph0" class="graph" transform="scale(1 1) rotate(0) translate(4 169.8)">
<title>dependencies</title>
<polygon fill="white" stroke="transparent" points="-4,4 -4,-169.8 672,-169.8 672,4 -4,4"/>
<text text-anchor="middle" x="334" y="-8.2" font-family="sans-serif" font-size="14.00">dependencies</text>
<g id="clust1" class="cluster">
<title>cluster_InstanceModule</title>
<polygon fill="none" stroke="black" stroke-dasharray="1,5" points="8,-32.8 8,-157.8 660,-157.8 660,-32.8 8,-32.8"/>
</g>
<g id="clust2" class="cluster">
<title>cluster_InstanceModule_declarations</title>
<polygon fill="none" stroke="black" points="306,-40.8 306,-92.8 652,-92.8 652,-40.8 306,-40.8"/>
</g>
<g id="clust5" class="cluster">
<title>cluster_InstanceModule_imports</title>
<polygon fill="none" stroke="black" points="184,-40.8 184,-92.8 298,-92.8 298,-40.8 184,-40.8"/>
</g>
<g id="clust8" class="cluster">
<title>cluster_InstanceModule_providers</title>
<polygon fill="none" stroke="black" points="16,-40.8 16,-92.8 176,-92.8 176,-40.8 16,-40.8"/>
</g>
<!-- InstanceDetailComponent -->
<g id="node1" class="node">
<title>InstanceDetailComponent</title>
<polygon fill="#ffffb3" stroke="black" points="644.18,-84.8 481.82,-84.8 481.82,-48.8 644.18,-48.8 644.18,-84.8"/>
<text text-anchor="middle" x="563" y="-62.6" font-family="Times,serif" font-size="14.00">InstanceDetailComponent</text>
</g>
<!-- InstanceModule -->
<g id="node3" class="node">
<title>InstanceModule</title>
<polygon fill="#8dd3c7" stroke="black" points="368.19,-149.8 365.19,-153.8 344.19,-153.8 341.19,-149.8 261.81,-149.8 261.81,-113.8 368.19,-113.8 368.19,-149.8"/>
<text text-anchor="middle" x="315" y="-127.6" font-family="Times,serif" font-size="14.00">InstanceModule</text>
</g>
<!-- InstanceDetailComponent&#45;&gt;InstanceModule -->
<g id="edge1" class="edge">
<title>InstanceDetailComponent&#45;&gt;InstanceModule</title>
<path fill="none" stroke="black" d="M563,-84.91C563,-104.14 563,-131.8 563,-131.8 563,-131.8 378.2,-131.8 378.2,-131.8"/>
<polygon fill="black" stroke="black" points="378.2,-128.3 368.2,-131.8 378.2,-135.3 378.2,-128.3"/>
</g>
<!-- InstanceListComponent -->
<g id="node2" class="node">
<title>InstanceListComponent</title>
<polygon fill="#ffffb3" stroke="black" points="463.75,-84.8 314.25,-84.8 314.25,-48.8 463.75,-48.8 463.75,-84.8"/>
<text text-anchor="middle" x="389" y="-62.6" font-family="Times,serif" font-size="14.00">InstanceListComponent</text>
</g>
<!-- InstanceListComponent&#45;&gt;InstanceModule -->
<g id="edge2" class="edge">
<title>InstanceListComponent&#45;&gt;InstanceModule</title>
<path fill="none" stroke="black" d="M341.11,-84.91C341.11,-84.91 341.11,-103.79 341.11,-103.79"/>
<polygon fill="black" stroke="black" points="337.61,-103.79 341.11,-113.79 344.61,-103.79 337.61,-103.79"/>
</g>
<!-- SharedModule -->
<g id="node4" class="node">
<title>SharedModule</title>
<polygon fill="#8dd3c7" stroke="black" points="290.43,-84.8 287.43,-88.8 266.43,-88.8 263.43,-84.8 191.57,-84.8 191.57,-48.8 290.43,-48.8 290.43,-84.8"/>
<text text-anchor="middle" x="241" y="-62.6" font-family="Times,serif" font-size="14.00">SharedModule</text>
</g>
<!-- SharedModule&#45;&gt;InstanceModule -->
<g id="edge3" class="edge">
<title>SharedModule&#45;&gt;InstanceModule</title>
<path fill="none" stroke="black" d="M276.06,-84.91C276.06,-84.91 276.06,-103.79 276.06,-103.79"/>
<polygon fill="black" stroke="black" points="272.56,-103.79 276.06,-113.79 279.56,-103.79 272.56,-103.79"/>
</g>
<!-- InstanceService -->
<g id="node5" class="node">
<title>InstanceService</title>
<ellipse fill="#fdb462" stroke="black" cx="96" cy="-66.8" rx="72.33" ry="18"/>
<text text-anchor="middle" x="96" y="-62.6" font-family="Times,serif" font-size="14.00">InstanceService</text>
</g>
<!-- InstanceService&#45;&gt;InstanceModule -->
<g id="edge4" class="edge">
<title>InstanceService&#45;&gt;InstanceModule</title>
<path fill="none" stroke="black" d="M96,-84.91C96,-104.14 96,-131.8 96,-131.8 96,-131.8 251.71,-131.8 251.71,-131.8"/>
<polygon fill="black" stroke="black" points="251.71,-135.3 261.71,-131.8 251.71,-128.3 251.71,-135.3"/>
</g>
</g>
</svg>
