<?xml version="1.0" encoding="UTF-8" standalone="no"?>
<!DOCTYPE svg PUBLIC "-//W3C//DTD SVG 1.1//EN"
 "http://www.w3.org/Graphics/SVG/1.1/DTD/svg11.dtd">
<!-- Generated by graphviz version 5.0.0 (20220707.1540)
 -->
<!-- Title: dependencies Pages: 1 -->
<svg width="1311pt" height="174pt"
 viewBox="0.00 0.00 1311.00 173.80" xmlns="http://www.w3.org/2000/svg" xmlns:xlink="http://www.w3.org/1999/xlink">
<g id="graph0" class="graph" transform="scale(1 1) rotate(0) translate(4 169.8)">
<title>dependencies</title>
<polygon fill="white" stroke="transparent" points="-4,4 -4,-169.8 1307,-169.8 1307,4 -4,4"/>
<text text-anchor="middle" x="651.5" y="-8.2" font-family="sans-serif" font-size="14.00">dependencies</text>
<g id="clust1" class="cluster">
<title>cluster_WorkflowModule</title>
<polygon fill="none" stroke="black" stroke-dasharray="1,5" points="8,-32.8 8,-157.8 1295,-157.8 1295,-32.8 8,-32.8"/>
</g>
<g id="clust11" class="cluster">
<title>cluster_WorkflowModule_providers</title>
<polygon fill="none" stroke="black" points="987,-40.8 987,-92.8 1287,-92.8 1287,-40.8 987,-40.8"/>
</g>
<g id="clust8" class="cluster">
<title>cluster_WorkflowModule_imports</title>
<polygon fill="none" stroke="black" points="865,-40.8 865,-92.8 979,-92.8 979,-40.8 865,-40.8"/>
</g>
<g id="clust2" class="cluster">
<title>cluster_WorkflowModule_declarations</title>
<polygon fill="none" stroke="black" points="16,-40.8 16,-92.8 857,-92.8 857,-40.8 16,-40.8"/>
</g>
<!-- JobDetailComponent -->
<g id="node1" class="node">
<title>JobDetailComponent</title>
<polygon fill="#ffffb3" stroke="black" points="849.49,-84.8 714.51,-84.8 714.51,-48.8 849.49,-48.8 849.49,-84.8"/>
<text text-anchor="middle" x="782" y="-62.6" font-family="Times,serif" font-size="14.00">JobDetailComponent</text>
</g>
<!-- WorkflowModule -->
<g id="node6" class="node">
<title>WorkflowModule</title>
<polygon fill="#8dd3c7" stroke="black" points="766.59,-149.8 763.59,-153.8 742.59,-153.8 739.59,-149.8 649.41,-149.8 649.41,-113.8 766.59,-113.8 766.59,-149.8"/>
<text text-anchor="middle" x="708" y="-127.6" font-family="Times,serif" font-size="14.00">WorkflowModule</text>
</g>
<!-- JobDetailComponent&#45;&gt;WorkflowModule -->
<g id="edge1" class="edge">
<title>JobDetailComponent&#45;&gt;WorkflowModule</title>
<path fill="none" stroke="black" d="M740.53,-84.91C740.53,-84.91 740.53,-103.79 740.53,-103.79"/>
<polygon fill="black" stroke="black" points="737.03,-103.79 740.53,-113.79 744.03,-103.79 737.03,-103.79"/>
</g>
<!-- JobListComponent -->
<g id="node2" class="node">
<title>JobListComponent</title>
<polygon fill="#ffffb3" stroke="black" points="696.06,-84.8 573.94,-84.8 573.94,-48.8 696.06,-48.8 696.06,-84.8"/>
<text text-anchor="middle" x="635" y="-62.6" font-family="Times,serif" font-size="14.00">JobListComponent</text>
</g>
<!-- JobListComponent&#45;&gt;WorkflowModule -->
<g id="edge2" class="edge">
<title>JobListComponent&#45;&gt;WorkflowModule</title>
<path fill="none" stroke="black" d="M672.87,-84.91C672.87,-84.91 672.87,-103.79 672.87,-103.79"/>
<polygon fill="black" stroke="black" points="669.37,-103.79 672.87,-113.79 676.37,-103.79 669.37,-103.79"/>
</g>
<!-- WorkflowDagComponent -->
<g id="node3" class="node">
<title>WorkflowDagComponent</title>
<polygon fill="#ffffb3" stroke="black" points="556.19,-84.8 393.81,-84.8 393.81,-48.8 556.19,-48.8 556.19,-84.8"/>
<text text-anchor="middle" x="475" y="-62.6" font-family="Times,serif" font-size="14.00">WorkflowDagComponent</text>
</g>
<!-- WorkflowDagComponent&#45;&gt;WorkflowModule -->
<g id="edge3" class="edge">
<title>WorkflowDagComponent&#45;&gt;WorkflowModule</title>
<path fill="none" stroke="black" d="M475,-84.83C475,-101.2 475,-122.8 475,-122.8 475,-122.8 639.2,-122.8 639.2,-122.8"/>
<polygon fill="black" stroke="black" points="639.2,-126.3 649.2,-122.8 639.2,-119.3 639.2,-126.3"/>
</g>
<!-- WorkflowDetailComponent -->
<g id="node4" class="node">
<title>WorkflowDetailComponent</title>
<polygon fill="#ffffb3" stroke="black" points="375.58,-84.8 202.42,-84.8 202.42,-48.8 375.58,-48.8 375.58,-84.8"/>
<text text-anchor="middle" x="289" y="-62.6" font-family="Times,serif" font-size="14.00">WorkflowDetailComponent</text>
</g>
<!-- WorkflowDetailComponent&#45;&gt;WorkflowModule -->
<g id="edge4" class="edge">
<title>WorkflowDetailComponent&#45;&gt;WorkflowModule</title>
<path fill="none" stroke="black" d="M289,-84.91C289,-104.14 289,-131.8 289,-131.8 289,-131.8 639.3,-131.8 639.3,-131.8"/>
<polygon fill="black" stroke="black" points="639.3,-135.3 649.3,-131.8 639.3,-128.3 639.3,-135.3"/>
</g>
<!-- WorkflowListComponent -->
<g id="node5" class="node">
<title>WorkflowListComponent</title>
<polygon fill="#ffffb3" stroke="black" points="184.15,-84.8 23.85,-84.8 23.85,-48.8 184.15,-48.8 184.15,-84.8"/>
<text text-anchor="middle" x="104" y="-62.6" font-family="Times,serif" font-size="14.00">WorkflowListComponent</text>
</g>
<!-- WorkflowListComponent&#45;&gt;WorkflowModule -->
<g id="edge5" class="edge">
<title>WorkflowListComponent&#45;&gt;WorkflowModule</title>
<path fill="none" stroke="black" d="M104,-85.09C104,-107.01 104,-140.8 104,-140.8 104,-140.8 639.26,-140.8 639.26,-140.8"/>
<polygon fill="black" stroke="black" points="639.26,-144.3 649.26,-140.8 639.26,-137.3 639.26,-144.3"/>
</g>
<!-- SharedModule -->
<g id="node7" class="node">
<title>SharedModule</title>
<polygon fill="#8dd3c7" stroke="black" points="971.43,-84.8 968.43,-88.8 947.43,-88.8 944.43,-84.8 872.57,-84.8 872.57,-48.8 971.43,-48.8 971.43,-84.8"/>
<text text-anchor="middle" x="922" y="-62.6" font-family="Times,serif" font-size="14.00">SharedModule</text>
</g>
<!-- SharedModule&#45;&gt;WorkflowModule -->
<g id="edge6" class="edge">
<title>SharedModule&#45;&gt;WorkflowModule</title>
<path fill="none" stroke="black" d="M922,-84.83C922,-101.2 922,-122.8 922,-122.8 922,-122.8 776.76,-122.8 776.76,-122.8"/>
<polygon fill="black" stroke="black" points="776.76,-119.3 766.76,-122.8 776.76,-126.3 776.76,-119.3"/>
</g>
<!-- JobService -->
<g id="node8" class="node">
<title>JobService</title>
<ellipse fill="#fdb462" stroke="black" cx="1226" cy="-66.8" rx="53.32" ry="18"/>
<text text-anchor="middle" x="1226" y="-62.6" font-family="Times,serif" font-size="14.00">JobService</text>
</g>
<!-- JobService&#45;&gt;WorkflowModule -->
<g id="edge7" class="edge">
<title>JobService&#45;&gt;WorkflowModule</title>
<path fill="none" stroke="black" d="M1226,-85.09C1226,-107.01 1226,-140.8 1226,-140.8 1226,-140.8 776.67,-140.8 776.67,-140.8"/>
<polygon fill="black" stroke="black" points="776.67,-137.3 766.67,-140.8 776.67,-144.3 776.67,-137.3"/>
</g>
<!-- WorkflowService -->
<g id="node9" class="node">
<title>WorkflowService</title>
<ellipse fill="#fdb462" stroke="black" cx="1075" cy="-66.8" rx="79.86" ry="18"/>
<text text-anchor="middle" x="1075" y="-62.6" font-family="Times,serif" font-size="14.00">WorkflowService</text>
</g>
<!-- WorkflowService&#45;&gt;WorkflowModule -->
<g id="edge8" class="edge">
<title>WorkflowService&#45;&gt;WorkflowModule</title>
<path fill="none" stroke="black" d="M1075,-84.91C1075,-104.14 1075,-131.8 1075,-131.8 1075,-131.8 776.56,-131.8 776.56,-131.8"/>
<polygon fill="black" stroke="black" points="776.56,-128.3 766.56,-131.8 776.56,-135.3 776.56,-128.3"/>
</g>
</g>
</svg>
