<?xml version="1.0" encoding="UTF-8" standalone="no"?>
<!DOCTYPE svg PUBLIC "-//W3C//DTD SVG 1.1//EN"
 "http://www.w3.org/Graphics/SVG/1.1/DTD/svg11.dtd">
<!-- Generated by graphviz version 5.0.0 (20220707.1540)
 -->
<!-- Title: dependencies Pages: 1 -->
<svg width="1434pt" height="312pt"
 viewBox="0.00 0.00 1434.00 311.80" xmlns="http://www.w3.org/2000/svg" xmlns:xlink="http://www.w3.org/1999/xlink">
<g id="graph0" class="graph" transform="scale(1 1) rotate(0) translate(4 307.8)">
<title>dependencies</title>
<polygon fill="white" stroke="transparent" points="-4,4 -4,-307.8 1430,-307.8 1430,4 -4,4"/>
<text text-anchor="middle" x="713" y="-8.2" font-family="sans-serif" font-size="14.00">dependencies</text>
<g id="clust1" class="cluster">
<title>cluster_AppModule</title>
<polygon fill="none" stroke="black" stroke-dasharray="1,5" points="8,-32.8 8,-295.8 1418,-295.8 1418,-32.8 8,-32.8"/>
</g>
<g id="clust2" class="cluster">
<title>cluster_AppModule_declarations</title>
<polygon fill="none" stroke="black" points="1288,-105.8 1288,-157.8 1410,-157.8 1410,-105.8 1288,-105.8"/>
</g>
<g id="clust3" class="cluster">
<title>cluster_AppModule_AppComponent_providers</title>
<polygon fill="none" stroke="black" points="1278,-40.8 1278,-92.8 1410,-92.8 1410,-40.8 1278,-40.8"/>
</g>
<g id="clust4" class="cluster">
<title>cluster_AppModule_imports</title>
<polygon fill="none" stroke="black" points="16,-105.8 16,-157.8 1280,-157.8 1280,-105.8 16,-105.8"/>
</g>
<g id="clust6" class="cluster">
<title>cluster_AppModule_bootstrap</title>
<polygon fill="none" stroke="black" points="648,-235.8 648,-287.8 772,-287.8 772,-235.8 648,-235.8"/>
</g>
<!-- AppComponent -->
<g id="node1" class="node">
<title>AppComponent</title>
<polygon fill="#ffffb3" stroke="black" points="1401.94,-149.8 1296.06,-149.8 1296.06,-113.8 1401.94,-113.8 1401.94,-149.8"/>
<text text-anchor="middle" x="1349" y="-127.6" font-family="Times,serif" font-size="14.00">AppComponent</text>
</g>
<!-- AppModule -->
<g id="node2" class="node">
<title>AppModule</title>
<polygon fill="#8dd3c7" stroke="black" points="751.66,-214.8 748.66,-218.8 727.66,-218.8 724.66,-214.8 668.34,-214.8 668.34,-178.8 751.66,-178.8 751.66,-214.8"/>
<text text-anchor="middle" x="710" y="-192.6" font-family="Times,serif" font-size="14.00">AppModule</text>
</g>
<!-- AppComponent&#45;&gt;AppModule -->
<g id="edge1" class="edge">
<title>AppComponent&#45;&gt;AppModule</title>
<path fill="none" stroke="black" d="M1349,-150.05C1349,-172.82 1349,-208.8 1349,-208.8 1349,-208.8 761.93,-208.8 761.93,-208.8"/>
<polygon fill="black" stroke="black" points="761.93,-205.3 751.93,-208.8 761.93,-212.3 761.93,-205.3"/>
</g>
<!-- AppComponent  -->
<g id="node14" class="node">
<title>AppComponent </title>
<polygon fill="#80b1d3" stroke="black" points="764.44,-279.8 655.56,-279.8 655.56,-243.8 764.44,-243.8 764.44,-279.8"/>
<text text-anchor="middle" x="710" y="-257.6" font-family="Times,serif" font-size="14.00">AppComponent </text>
</g>
<!-- AppModule&#45;&gt;AppComponent  -->
<g id="edge13" class="edge">
<title>AppModule&#45;&gt;AppComponent </title>
<path fill="none" stroke="black" stroke-dasharray="1,5" d="M710,-214.91C710,-214.91 710,-233.79 710,-233.79"/>
<polygon fill="black" stroke="black" points="706.5,-233.79 710,-243.79 713.5,-233.79 706.5,-233.79"/>
</g>
<!-- UserService -->
<g id="node3" class="node">
<title>UserService</title>
<ellipse fill="#fdb462" stroke="black" cx="1344" cy="-66.8" rx="58.46" ry="18"/>
<text text-anchor="middle" x="1344" y="-62.6" font-family="Times,serif" font-size="14.00">UserService</text>
</g>
<!-- UserService&#45;&gt;AppComponent -->
<g id="edge2" class="edge">
<title>UserService&#45;&gt;AppComponent</title>
<path fill="none" stroke="black" d="M1349,-84.91C1349,-84.91 1349,-103.79 1349,-103.79"/>
<polygon fill="black" stroke="black" points="1345.5,-103.79 1349,-113.79 1352.5,-103.79 1345.5,-103.79"/>
</g>
<!-- ChooserModule -->
<g id="node4" class="node">
<title>ChooserModule</title>
<polygon fill="#8dd3c7" stroke="black" points="1272.21,-149.8 1269.21,-153.8 1248.21,-153.8 1245.21,-149.8 1165.79,-149.8 1165.79,-113.8 1272.21,-113.8 1272.21,-149.8"/>
<text text-anchor="middle" x="1219" y="-127.6" font-family="Times,serif" font-size="14.00">ChooserModule</text>
</g>
<!-- ChooserModule&#45;&gt;AppModule -->
<g id="edge3" class="edge">
<title>ChooserModule&#45;&gt;AppModule</title>
<path fill="none" stroke="black" d="M1219,-150.08C1219,-171.12 1219,-202.8 1219,-202.8 1219,-202.8 762.09,-202.8 762.09,-202.8"/>
<polygon fill="black" stroke="black" points="762.09,-199.3 752.09,-202.8 762.09,-206.3 762.09,-199.3"/>
</g>
<!-- ClusterModule -->
<g id="node5" class="node">
<title>ClusterModule</title>
<polygon fill="#8dd3c7" stroke="black" points="1147.99,-149.8 1144.99,-153.8 1123.99,-153.8 1120.99,-149.8 1048.01,-149.8 1048.01,-113.8 1147.99,-113.8 1147.99,-149.8"/>
<text text-anchor="middle" x="1098" y="-127.6" font-family="Times,serif" font-size="14.00">ClusterModule</text>
</g>
<!-- ClusterModule&#45;&gt;AppModule -->
<g id="edge4" class="edge">
<title>ClusterModule&#45;&gt;AppModule</title>
<path fill="none" stroke="black" d="M1098,-149.91C1098,-169.14 1098,-196.8 1098,-196.8 1098,-196.8 761.89,-196.8 761.89,-196.8"/>
<polygon fill="black" stroke="black" points="761.89,-193.3 751.89,-196.8 761.89,-200.3 761.89,-193.3"/>
</g>
<!-- ConfigurationModule -->
<g id="node6" class="node">
<title>ConfigurationModule</title>
<polygon fill="#8dd3c7" stroke="black" points="1030.1,-149.8 1027.1,-153.8 1006.1,-153.8 1003.1,-149.8 891.9,-149.8 891.9,-113.8 1030.1,-113.8 1030.1,-149.8"/>
<text text-anchor="middle" x="961" y="-127.6" font-family="Times,serif" font-size="14.00">ConfigurationModule</text>
</g>
<!-- ConfigurationModule&#45;&gt;AppModule -->
<g id="edge5" class="edge">
<title>ConfigurationModule&#45;&gt;AppModule</title>
<path fill="none" stroke="black" d="M961,-149.82C961,-167.17 961,-190.8 961,-190.8 961,-190.8 761.73,-190.8 761.73,-190.8"/>
<polygon fill="black" stroke="black" points="761.73,-187.3 751.73,-190.8 761.73,-194.3 761.73,-187.3"/>
</g>
<!-- CoreModule -->
<g id="node7" class="node">
<title>CoreModule</title>
<polygon fill="#8dd3c7" stroke="black" points="874.27,-149.8 871.27,-153.8 850.27,-153.8 847.27,-149.8 787.73,-149.8 787.73,-113.8 874.27,-113.8 874.27,-149.8"/>
<text text-anchor="middle" x="831" y="-127.6" font-family="Times,serif" font-size="14.00">CoreModule</text>
</g>
<!-- CoreModule&#45;&gt;AppModule -->
<g id="edge6" class="edge">
<title>CoreModule&#45;&gt;AppModule</title>
<path fill="none" stroke="black" d="M831,-150.04C831,-165.37 831,-184.8 831,-184.8 831,-184.8 761.98,-184.8 761.98,-184.8"/>
<polygon fill="black" stroke="black" points="761.98,-181.3 751.98,-184.8 761.98,-188.3 761.98,-181.3"/>
</g>
<!-- DashboardModule -->
<g id="node8" class="node">
<title>DashboardModule</title>
<polygon fill="#8dd3c7" stroke="black" points="770.2,-149.8 767.2,-153.8 746.2,-153.8 743.2,-149.8 649.8,-149.8 649.8,-113.8 770.2,-113.8 770.2,-149.8"/>
<text text-anchor="middle" x="710" y="-127.6" font-family="Times,serif" font-size="14.00">DashboardModule</text>
</g>
<!-- DashboardModule&#45;&gt;AppModule -->
<g id="edge7" class="edge">
<title>DashboardModule&#45;&gt;AppModule</title>
<path fill="none" stroke="black" d="M710,-149.91C710,-149.91 710,-168.79 710,-168.79"/>
<polygon fill="black" stroke="black" points="706.5,-168.79 710,-178.79 713.5,-168.79 706.5,-168.79"/>
</g>
<!-- HistoryModule -->
<g id="node9" class="node">
<title>HistoryModule</title>
<polygon fill="#8dd3c7" stroke="black" points="631.55,-149.8 628.55,-153.8 607.55,-153.8 604.55,-149.8 530.45,-149.8 530.45,-113.8 631.55,-113.8 631.55,-149.8"/>
<text text-anchor="middle" x="581" y="-127.6" font-family="Times,serif" font-size="14.00">HistoryModule</text>
</g>
<!-- HistoryModule&#45;&gt;AppModule -->
<g id="edge8" class="edge">
<title>HistoryModule&#45;&gt;AppModule</title>
<path fill="none" stroke="black" d="M581,-150.04C581,-165.37 581,-184.8 581,-184.8 581,-184.8 658.12,-184.8 658.12,-184.8"/>
<polygon fill="black" stroke="black" points="658.12,-188.3 668.12,-184.8 658.12,-181.3 658.12,-188.3"/>
</g>
<!-- InstanceModule -->
<g id="node10" class="node">
<title>InstanceModule</title>
<polygon fill="#8dd3c7" stroke="black" points="512.19,-149.8 509.19,-153.8 488.19,-153.8 485.19,-149.8 405.81,-149.8 405.81,-113.8 512.19,-113.8 512.19,-149.8"/>
<text text-anchor="middle" x="459" y="-127.6" font-family="Times,serif" font-size="14.00">InstanceModule</text>
</g>
<!-- InstanceModule&#45;&gt;AppModule -->
<g id="edge9" class="edge">
<title>InstanceModule&#45;&gt;AppModule</title>
<path fill="none" stroke="black" d="M459,-149.82C459,-167.17 459,-190.8 459,-190.8 459,-190.8 658.27,-190.8 658.27,-190.8"/>
<polygon fill="black" stroke="black" points="658.27,-194.3 668.27,-190.8 658.27,-187.3 658.27,-194.3"/>
</g>
<!-- ResourceModule -->
<g id="node11" class="node">
<title>ResourceModule</title>
<polygon fill="#8dd3c7" stroke="black" points="387.64,-149.8 384.64,-153.8 363.64,-153.8 360.64,-149.8 276.36,-149.8 276.36,-113.8 387.64,-113.8 387.64,-149.8"/>
<text text-anchor="middle" x="332" y="-127.6" font-family="Times,serif" font-size="14.00">ResourceModule</text>
</g>
<!-- ResourceModule&#45;&gt;AppModule -->
<g id="edge10" class="edge">
<title>ResourceModule&#45;&gt;AppModule</title>
<path fill="none" stroke="black" d="M332,-149.91C332,-169.14 332,-196.8 332,-196.8 332,-196.8 658.1,-196.8 658.1,-196.8"/>
<polygon fill="black" stroke="black" points="658.1,-200.3 668.1,-196.8 658.1,-193.3 658.1,-200.3"/>
</g>
<!-- SharedModule -->
<g id="node12" class="node">
<title>SharedModule</title>
<polygon fill="#8dd3c7" stroke="black" points="258.43,-149.8 255.43,-153.8 234.43,-153.8 231.43,-149.8 159.57,-149.8 159.57,-113.8 258.43,-113.8 258.43,-149.8"/>
<text text-anchor="middle" x="209" y="-127.6" font-family="Times,serif" font-size="14.00">SharedModule</text>
</g>
<!-- SharedModule&#45;&gt;AppModule -->
<g id="edge11" class="edge">
<title>SharedModule&#45;&gt;AppModule</title>
<path fill="none" stroke="black" d="M209,-150.08C209,-171.12 209,-202.8 209,-202.8 209,-202.8 658.15,-202.8 658.15,-202.8"/>
<polygon fill="black" stroke="black" points="658.15,-206.3 668.15,-202.8 658.15,-199.3 658.15,-206.3"/>
</g>
<!-- WorkflowModule -->
<g id="node13" class="node">
<title>WorkflowModule</title>
<polygon fill="#8dd3c7" stroke="black" points="141.59,-149.8 138.59,-153.8 117.59,-153.8 114.59,-149.8 24.41,-149.8 24.41,-113.8 141.59,-113.8 141.59,-149.8"/>
<text text-anchor="middle" x="83" y="-127.6" font-family="Times,serif" font-size="14.00">WorkflowModule</text>
</g>
<!-- WorkflowModule&#45;&gt;AppModule -->
<g id="edge12" class="edge">
<title>WorkflowModule&#45;&gt;AppModule</title>
<path fill="none" stroke="black" d="M83,-150.05C83,-172.82 83,-208.8 83,-208.8 83,-208.8 657.89,-208.8 657.89,-208.8"/>
<polygon fill="black" stroke="black" points="657.89,-212.3 667.89,-208.8 657.89,-205.3 657.89,-212.3"/>
</g>
</g>
</svg>
