<?xml version="1.0" encoding="UTF-8" standalone="no"?>
<!DOCTYPE svg PUBLIC "-//W3C//DTD SVG 1.1//EN"
 "http://www.w3.org/Graphics/SVG/1.1/DTD/svg11.dtd">
<!-- Generated by graphviz version 5.0.0 (20220707.1540)
 -->
<!-- Title: dependencies Pages: 1 -->
<svg width="2360pt" height="247pt"
 viewBox="0.00 0.00 2360.00 246.80" xmlns="http://www.w3.org/2000/svg" xmlns:xlink="http://www.w3.org/1999/xlink">
<g id="graph0" class="graph" transform="scale(1 1) rotate(0) translate(4 242.8)">
<title>dependencies</title>
<polygon fill="white" stroke="transparent" points="-4,4 -4,-242.8 2356,-242.8 2356,4 -4,4"/>
<text text-anchor="middle" x="1176" y="-8.2" font-family="sans-serif" font-size="14.00">dependencies</text>
<g id="clust1" class="cluster">
<title>cluster_SharedModule</title>
<polygon fill="none" stroke="black" stroke-dasharray="1,5" points="8,-32.8 8,-230.8 2344,-230.8 2344,-32.8 8,-32.8"/>
</g>
<g id="clust2" class="cluster">
<title>cluster_SharedModule_declarations</title>
<polygon fill="none" stroke="black" points="302,-40.8 302,-92.8 2336,-92.8 2336,-40.8 302,-40.8"/>
</g>
<g id="clust15" class="cluster">
<title>cluster_SharedModule_imports</title>
<polygon fill="none" stroke="black" points="172,-40.8 172,-92.8 294,-92.8 294,-40.8 172,-40.8"/>
</g>
<g id="clust18" class="cluster">
<title>cluster_SharedModule_providers</title>
<polygon fill="none" stroke="black" points="16,-40.8 16,-92.8 164,-92.8 164,-40.8 16,-40.8"/>
</g>
<g id="clust16" class="cluster">
<title>cluster_SharedModule_exports</title>
<polygon fill="none" stroke="black" points="497,-170.8 497,-222.8 1848,-222.8 1848,-170.8 497,-170.8"/>
</g>
<!-- AlertDialogComponent -->
<g id="node1" class="node">
<title>AlertDialogComponent</title>
<polygon fill="#ffffb3" stroke="black" points="2328.2,-84.8 2179.8,-84.8 2179.8,-48.8 2328.2,-48.8 2328.2,-84.8"/>
<text text-anchor="middle" x="2254" y="-62.6" font-family="Times,serif" font-size="14.00">AlertDialogComponent</text>
</g>
<!-- SharedModule -->
<g id="node13" class="node">
<title>SharedModule</title>
<polygon fill="#8dd3c7" stroke="black" points="1193.43,-149.8 1190.43,-153.8 1169.43,-153.8 1166.43,-149.8 1094.57,-149.8 1094.57,-113.8 1193.43,-113.8 1193.43,-149.8"/>
<text text-anchor="middle" x="1144" y="-127.6" font-family="Times,serif" font-size="14.00">SharedModule</text>
</g>
<!-- AlertDialogComponent&#45;&gt;SharedModule -->
<g id="edge1" class="edge">
<title>AlertDialogComponent&#45;&gt;SharedModule</title>
<path fill="none" stroke="black" d="M2254,-84.93C2254,-105.37 2254,-135.8 2254,-135.8 2254,-135.8 1203.49,-135.8 1203.49,-135.8"/>
<polygon fill="black" stroke="black" points="1203.49,-132.3 1193.49,-135.8 1203.49,-139.3 1203.49,-132.3"/>
</g>
<!-- ConfirmDialogComponent -->
<g id="node2" class="node">
<title>ConfirmDialogComponent</title>
<polygon fill="#ffffb3" stroke="black" points="2161.38,-84.8 1994.62,-84.8 1994.62,-48.8 2161.38,-48.8 2161.38,-84.8"/>
<text text-anchor="middle" x="2078" y="-62.6" font-family="Times,serif" font-size="14.00">ConfirmDialogComponent</text>
</g>
<!-- ConfirmDialogComponent&#45;&gt;SharedModule -->
<g id="edge2" class="edge">
<title>ConfirmDialogComponent&#45;&gt;SharedModule</title>
<path fill="none" stroke="black" d="M2078,-84.91C2078,-104.14 2078,-131.8 2078,-131.8 2078,-131.8 1203.23,-131.8 1203.23,-131.8"/>
<polygon fill="black" stroke="black" points="1203.23,-128.3 1193.23,-131.8 1203.23,-135.3 1203.23,-128.3"/>
</g>
<!-- DataTableComponent -->
<g id="node3" class="node">
<title>DataTableComponent</title>
<polygon fill="#ffffb3" stroke="black" points="1976.63,-84.8 1837.37,-84.8 1837.37,-48.8 1976.63,-48.8 1976.63,-84.8"/>
<text text-anchor="middle" x="1907" y="-62.6" font-family="Times,serif" font-size="14.00">DataTableComponent</text>
</g>
<!-- DataTableComponent&#45;&gt;SharedModule -->
<g id="edge3" class="edge">
<title>DataTableComponent&#45;&gt;SharedModule</title>
<path fill="none" stroke="black" d="M1908.27,-85.07C1908.27,-103.36 1908.27,-128.8 1908.27,-128.8 1908.27,-128.8 1203.26,-128.8 1203.26,-128.8"/>
<polygon fill="black" stroke="black" points="1203.26,-125.3 1193.26,-128.8 1203.26,-132.3 1203.26,-125.3"/>
</g>
<!-- DetailHeaderComponent -->
<g id="node4" class="node">
<title>DetailHeaderComponent</title>
<polygon fill="#ffffb3" stroke="black" points="1818.95,-84.8 1663.05,-84.8 1663.05,-48.8 1818.95,-48.8 1818.95,-84.8"/>
<text text-anchor="middle" x="1741" y="-62.6" font-family="Times,serif" font-size="14.00">DetailHeaderComponent</text>
</g>
<!-- DetailHeaderComponent&#45;&gt;SharedModule -->
<g id="edge4" class="edge">
<title>DetailHeaderComponent&#45;&gt;SharedModule</title>
<path fill="none" stroke="black" d="M1671.65,-84.83C1671.65,-101.86 1671.65,-124.8 1671.65,-124.8 1671.65,-124.8 1203.64,-124.8 1203.64,-124.8"/>
<polygon fill="black" stroke="black" points="1203.64,-121.3 1193.64,-124.8 1203.64,-128.3 1203.64,-121.3"/>
</g>
<!-- DisabledLabelComponent -->
<g id="node5" class="node">
<title>DisabledLabelComponent</title>
<polygon fill="#ffffb3" stroke="black" points="1645.47,-84.8 1482.53,-84.8 1482.53,-48.8 1645.47,-48.8 1645.47,-84.8"/>
<text text-anchor="middle" x="1564" y="-62.6" font-family="Times,serif" font-size="14.00">DisabledLabelComponent</text>
</g>
<!-- DisabledLabelComponent&#45;&gt;SharedModule -->
<g id="edge5" class="edge">
<title>DisabledLabelComponent&#45;&gt;SharedModule</title>
<path fill="none" stroke="black" d="M1489.14,-84.81C1489.14,-100.85 1489.14,-121.8 1489.14,-121.8 1489.14,-121.8 1203.45,-121.8 1203.45,-121.8"/>
<polygon fill="black" stroke="black" points="1203.45,-118.3 1193.45,-121.8 1203.45,-125.3 1203.45,-118.3"/>
</g>
<!-- InputDialogComponent -->
<g id="node6" class="node">
<title>InputDialogComponent</title>
<polygon fill="#ffffb3" stroke="black" points="1464.49,-84.8 1315.51,-84.8 1315.51,-48.8 1464.49,-48.8 1464.49,-84.8"/>
<text text-anchor="middle" x="1390" y="-62.6" font-family="Times,serif" font-size="14.00">InputDialogComponent</text>
</g>
<!-- InputDialogComponent&#45;&gt;SharedModule -->
<g id="edge6" class="edge">
<title>InputDialogComponent&#45;&gt;SharedModule</title>
<path fill="none" stroke="black" d="M1321.02,-84.92C1321.02,-99.58 1321.02,-117.8 1321.02,-117.8 1321.02,-117.8 1203.31,-117.8 1203.31,-117.8"/>
<polygon fill="black" stroke="black" points="1203.31,-114.3 1193.31,-117.8 1203.31,-121.3 1203.31,-114.3"/>
</g>
<!-- InputInlineComponent -->
<g id="node7" class="node">
<title>InputInlineComponent</title>
<polygon fill="#ffffb3" stroke="black" points="1297.54,-84.8 1154.46,-84.8 1154.46,-48.8 1297.54,-48.8 1297.54,-84.8"/>
<text text-anchor="middle" x="1226" y="-62.6" font-family="Times,serif" font-size="14.00">InputInlineComponent</text>
</g>
<!-- InputInlineComponent&#45;&gt;SharedModule -->
<g id="edge7" class="edge">
<title>InputInlineComponent&#45;&gt;SharedModule</title>
<path fill="none" stroke="black" d="M1173.72,-84.91C1173.72,-84.91 1173.72,-103.79 1173.72,-103.79"/>
<polygon fill="black" stroke="black" points="1170.22,-103.79 1173.72,-113.79 1177.22,-103.79 1170.22,-103.79"/>
</g>
<!-- JsonViewerComponent -->
<g id="node8" class="node">
<title>JsonViewerComponent</title>
<polygon fill="#ffffb3" stroke="black" points="1136.93,-84.8 989.07,-84.8 989.07,-48.8 1136.93,-48.8 1136.93,-84.8"/>
<text text-anchor="middle" x="1063" y="-62.6" font-family="Times,serif" font-size="14.00">JsonViewerComponent</text>
</g>
<!-- JsonViewerComponent&#45;&gt;SharedModule -->
<g id="edge8" class="edge">
<title>JsonViewerComponent&#45;&gt;SharedModule</title>
<path fill="none" stroke="black" d="M1115.75,-84.91C1115.75,-84.91 1115.75,-103.79 1115.75,-103.79"/>
<polygon fill="black" stroke="black" points="1112.25,-103.79 1115.75,-113.79 1119.25,-103.79 1112.25,-103.79"/>
</g>
<!-- KeyValuePairDirective -->
<g id="node9" class="node">
<title>KeyValuePairDirective</title>
<polygon fill="#ffffb3" stroke="black" points="971.89,-84.8 824.11,-84.8 824.11,-48.8 971.89,-48.8 971.89,-84.8"/>
<text text-anchor="middle" x="898" y="-62.6" font-family="Times,serif" font-size="14.00">KeyValuePairDirective</text>
</g>
<!-- KeyValuePairDirective&#45;&gt;SharedModule -->
<g id="edge9" class="edge">
<title>KeyValuePairDirective&#45;&gt;SharedModule</title>
<path fill="none" stroke="black" d="M961.22,-84.92C961.22,-99.58 961.22,-117.8 961.22,-117.8 961.22,-117.8 1084.54,-117.8 1084.54,-117.8"/>
<polygon fill="black" stroke="black" points="1084.54,-121.3 1094.54,-117.8 1084.54,-114.3 1084.54,-121.3"/>
</g>
<!-- KeyValuePairsComponent -->
<g id="node10" class="node">
<title>KeyValuePairsComponent</title>
<polygon fill="#ffffb3" stroke="black" points="806.08,-84.8 639.92,-84.8 639.92,-48.8 806.08,-48.8 806.08,-84.8"/>
<text text-anchor="middle" x="723" y="-62.6" font-family="Times,serif" font-size="14.00">KeyValuePairsComponent</text>
</g>
<!-- KeyValuePairsComponent&#45;&gt;SharedModule -->
<g id="edge10" class="edge">
<title>KeyValuePairsComponent&#45;&gt;SharedModule</title>
<path fill="none" stroke="black" d="M736.93,-84.81C736.93,-100.85 736.93,-121.8 736.93,-121.8 736.93,-121.8 1084.49,-121.8 1084.49,-121.8"/>
<polygon fill="black" stroke="black" points="1084.49,-125.3 1094.49,-121.8 1084.49,-118.3 1084.49,-125.3"/>
</g>
<!-- NodeViewerComponent -->
<g id="node11" class="node">
<title>NodeViewerComponent</title>
<polygon fill="#ffffb3" stroke="black" points="622.36,-84.8 469.64,-84.8 469.64,-48.8 622.36,-48.8 622.36,-84.8"/>
<text text-anchor="middle" x="546" y="-62.6" font-family="Times,serif" font-size="14.00">NodeViewerComponent</text>
</g>
<!-- NodeViewerComponent&#45;&gt;SharedModule -->
<g id="edge11" class="edge">
<title>NodeViewerComponent&#45;&gt;SharedModule</title>
<path fill="none" stroke="black" d="M563.54,-84.83C563.54,-101.86 563.54,-124.8 563.54,-124.8 563.54,-124.8 1084.51,-124.8 1084.51,-124.8"/>
<polygon fill="black" stroke="black" points="1084.51,-128.3 1094.51,-124.8 1084.51,-121.3 1084.51,-128.3"/>
</g>
<!-- StateLabelComponent -->
<g id="node12" class="node">
<title>StateLabelComponent</title>
<polygon fill="#ffffb3" stroke="black" points="451.69,-84.8 310.31,-84.8 310.31,-48.8 451.69,-48.8 451.69,-84.8"/>
<text text-anchor="middle" x="381" y="-62.6" font-family="Times,serif" font-size="14.00">StateLabelComponent</text>
</g>
<!-- StateLabelComponent&#45;&gt;SharedModule -->
<g id="edge12" class="edge">
<title>StateLabelComponent&#45;&gt;SharedModule</title>
<path fill="none" stroke="black" d="M381,-85.07C381,-103.36 381,-128.8 381,-128.8 381,-128.8 1084.53,-128.8 1084.53,-128.8"/>
<polygon fill="black" stroke="black" points="1084.53,-132.3 1094.53,-128.8 1084.53,-125.3 1084.53,-132.3"/>
</g>
<!-- DetailHeaderComponent  -->
<g id="node15" class="node">
<title>DetailHeaderComponent </title>
<polygon fill="#fb8072" stroke="black" points="1839.95,-214.8 1680.05,-214.8 1680.05,-178.8 1839.95,-178.8 1839.95,-214.8"/>
<text text-anchor="middle" x="1760" y="-192.6" font-family="Times,serif" font-size="14.00">DetailHeaderComponent </text>
</g>
<!-- SharedModule&#45;&gt;DetailHeaderComponent  -->
<g id="edge14" class="edge">
<title>SharedModule&#45;&gt;DetailHeaderComponent </title>
<path fill="none" stroke="black" stroke-dasharray="5,2" d="M1193.3,-139.8C1337.71,-139.8 1749.62,-139.8 1749.62,-139.8 1749.62,-139.8 1749.62,-168.76 1749.62,-168.76"/>
<polygon fill="black" stroke="black" points="1746.13,-168.76 1749.62,-178.76 1753.13,-168.76 1746.13,-168.76"/>
</g>
<!-- DisabledLabelComponent  -->
<g id="node16" class="node">
<title>DisabledLabelComponent </title>
<polygon fill="#fb8072" stroke="black" points="1662.47,-214.8 1495.53,-214.8 1495.53,-178.8 1662.47,-178.8 1662.47,-214.8"/>
<text text-anchor="middle" x="1579" y="-192.6" font-family="Times,serif" font-size="14.00">DisabledLabelComponent </text>
</g>
<!-- SharedModule&#45;&gt;DisabledLabelComponent  -->
<g id="edge15" class="edge">
<title>SharedModule&#45;&gt;DisabledLabelComponent </title>
<path fill="none" stroke="black" stroke-dasharray="5,2" d="M1193.36,-142.8C1305.66,-142.8 1570.62,-142.8 1570.62,-142.8 1570.62,-142.8 1570.62,-168.52 1570.62,-168.52"/>
<polygon fill="black" stroke="black" points="1567.13,-168.52 1570.62,-178.52 1574.13,-168.52 1567.13,-168.52"/>
</g>
<!-- JsonViewerComponent  -->
<g id="node17" class="node">
<title>JsonViewerComponent </title>
<polygon fill="#fb8072" stroke="black" points="1477.43,-214.8 1326.57,-214.8 1326.57,-178.8 1477.43,-178.8 1477.43,-214.8"/>
<text text-anchor="middle" x="1402" y="-192.6" font-family="Times,serif" font-size="14.00">JsonViewerComponent </text>
</g>
<!-- SharedModule&#45;&gt;JsonViewerComponent  -->
<g id="edge16" class="edge">
<title>SharedModule&#45;&gt;JsonViewerComponent </title>
<path fill="none" stroke="black" stroke-dasharray="5,2" d="M1193.39,-146.8C1266.64,-146.8 1395.51,-146.8 1395.51,-146.8 1395.51,-146.8 1395.51,-168.75 1395.51,-168.75"/>
<polygon fill="black" stroke="black" points="1392.01,-168.75 1395.51,-178.75 1399.01,-168.75 1392.01,-168.75"/>
</g>
<!-- KeyValuePairDirective  -->
<g id="node18" class="node">
<title>KeyValuePairDirective </title>
<polygon fill="#fb8072" stroke="black" points="1308.39,-214.8 1157.61,-214.8 1157.61,-178.8 1308.39,-178.8 1308.39,-214.8"/>
<text text-anchor="middle" x="1233" y="-192.6" font-family="Times,serif" font-size="14.00">KeyValuePairDirective </text>
</g>
<!-- SharedModule&#45;&gt;KeyValuePairDirective  -->
<g id="edge17" class="edge">
<title>SharedModule&#45;&gt;KeyValuePairDirective </title>
<path fill="none" stroke="black" stroke-dasharray="5,2" d="M1175.39,-149.91C1175.39,-149.91 1175.39,-168.79 1175.39,-168.79"/>
<polygon fill="black" stroke="black" points="1171.89,-168.79 1175.39,-178.79 1178.89,-168.79 1171.89,-168.79"/>
</g>
<!-- KeyValuePairsComponent  -->
<g id="node19" class="node">
<title>KeyValuePairsComponent </title>
<polygon fill="#fb8072" stroke="black" points="1139.58,-214.8 970.42,-214.8 970.42,-178.8 1139.58,-178.8 1139.58,-214.8"/>
<text text-anchor="middle" x="1055" y="-192.6" font-family="Times,serif" font-size="14.00">KeyValuePairsComponent </text>
</g>
<!-- SharedModule&#45;&gt;KeyValuePairsComponent  -->
<g id="edge18" class="edge">
<title>SharedModule&#45;&gt;KeyValuePairsComponent </title>
<path fill="none" stroke="black" stroke-dasharray="5,2" d="M1117.29,-149.91C1117.29,-149.91 1117.29,-168.79 1117.29,-168.79"/>
<polygon fill="black" stroke="black" points="1113.79,-168.79 1117.29,-178.79 1120.79,-168.79 1113.79,-168.79"/>
</g>
<!-- MaterialModule  -->
<g id="node20" class="node">
<title>MaterialModule </title>
<polygon fill="#fb8072" stroke="black" points="952.47,-214.8 841.53,-214.8 841.53,-178.8 952.47,-178.8 952.47,-214.8"/>
<text text-anchor="middle" x="897" y="-192.6" font-family="Times,serif" font-size="14.00">MaterialModule </text>
</g>
<!-- SharedModule&#45;&gt;MaterialModule  -->
<g id="edge19" class="edge">
<title>SharedModule&#45;&gt;MaterialModule </title>
<path fill="none" stroke="black" stroke-dasharray="5,2" d="M1094.61,-146.8C1022.53,-146.8 897,-146.8 897,-146.8 897,-146.8 897,-168.75 897,-168.75"/>
<polygon fill="black" stroke="black" points="893.5,-168.75 897,-178.75 900.5,-168.75 893.5,-168.75"/>
</g>
<!-- NodeViewerComponent  -->
<g id="node21" class="node">
<title>NodeViewerComponent </title>
<polygon fill="#fb8072" stroke="black" points="824.36,-214.8 667.64,-214.8 667.64,-178.8 824.36,-178.8 824.36,-214.8"/>
<text text-anchor="middle" x="746" y="-192.6" font-family="Times,serif" font-size="14.00">NodeViewerComponent </text>
</g>
<!-- SharedModule&#45;&gt;NodeViewerComponent  -->
<g id="edge20" class="edge">
<title>SharedModule&#45;&gt;NodeViewerComponent </title>
<path fill="none" stroke="black" stroke-dasharray="5,2" d="M1094.76,-142.8C1003.01,-142.8 815.11,-142.8 815.11,-142.8 815.11,-142.8 815.11,-168.52 815.11,-168.52"/>
<polygon fill="black" stroke="black" points="811.61,-168.52 815.11,-178.52 818.61,-168.52 811.61,-168.52"/>
</g>
<!-- StateLabelComponent  -->
<g id="node22" class="node">
<title>StateLabelComponent </title>
<polygon fill="#fb8072" stroke="black" points="649.19,-214.8 504.81,-214.8 504.81,-178.8 649.19,-178.8 649.19,-214.8"/>
<text text-anchor="middle" x="577" y="-192.6" font-family="Times,serif" font-size="14.00">StateLabelComponent </text>
</g>
<!-- SharedModule&#45;&gt;StateLabelComponent  -->
<g id="edge21" class="edge">
<title>SharedModule&#45;&gt;StateLabelComponent </title>
<path fill="none" stroke="black" stroke-dasharray="5,2" d="M1094.75,-139.8C968.78,-139.8 644.65,-139.8 644.65,-139.8 644.65,-139.8 644.65,-168.76 644.65,-168.76"/>
<polygon fill="black" stroke="black" points="641.15,-168.76 644.65,-178.76 648.15,-168.76 641.15,-168.76"/>
</g>
<!-- MaterialModule -->
<g id="node14" class="node">
<title>MaterialModule</title>
<polygon fill="#8dd3c7" stroke="black" points="286.47,-84.8 283.47,-88.8 262.47,-88.8 259.47,-84.8 179.53,-84.8 179.53,-48.8 286.47,-48.8 286.47,-84.8"/>
<text text-anchor="middle" x="233" y="-62.6" font-family="Times,serif" font-size="14.00">MaterialModule</text>
</g>
<!-- MaterialModule&#45;&gt;SharedModule -->
<g id="edge13" class="edge">
<title>MaterialModule&#45;&gt;SharedModule</title>
<path fill="none" stroke="black" d="M233,-84.91C233,-104.14 233,-131.8 233,-131.8 233,-131.8 1084.7,-131.8 1084.7,-131.8"/>
<polygon fill="black" stroke="black" points="1084.7,-135.3 1094.7,-131.8 1084.7,-128.3 1084.7,-135.3"/>
</g>
<!-- HelperService -->
<g id="node23" class="node">
<title>HelperService</title>
<ellipse fill="#fdb462" stroke="black" cx="90" cy="-66.8" rx="66.03" ry="18"/>
<text text-anchor="middle" x="90" y="-62.6" font-family="Times,serif" font-size="14.00">HelperService</text>
</g>
<!-- HelperService&#45;&gt;SharedModule -->
<g id="edge22" class="edge">
<title>HelperService&#45;&gt;SharedModule</title>
<path fill="none" stroke="black" d="M90,-84.93C90,-105.37 90,-135.8 90,-135.8 90,-135.8 1084.58,-135.8 1084.58,-135.8"/>
<polygon fill="black" stroke="black" points="1084.58,-139.3 1094.58,-135.8 1084.58,-132.3 1084.58,-139.3"/>
</g>
</g>
</svg>
