<?xml version="1.0" encoding="UTF-8" standalone="no"?>
<!DOCTYPE svg PUBLIC "-//W3C//DTD SVG 1.1//EN"
 "http://www.w3.org/Graphics/SVG/1.1/DTD/svg11.dtd">
<!-- Generated by graphviz version 5.0.0 (20220707.1540)
 -->
<!-- Title: dependencies Pages: 1 -->
<svg width="324pt" height="174pt"
 viewBox="0.00 0.00 324.00 173.80" xmlns="http://www.w3.org/2000/svg" xmlns:xlink="http://www.w3.org/1999/xlink">
<g id="graph0" class="graph" transform="scale(1 1) rotate(0) translate(4 169.8)">
<title>dependencies</title>
<polygon fill="white" stroke="transparent" points="-4,4 -4,-169.8 320,-169.8 320,4 -4,4"/>
<text text-anchor="middle" x="158" y="-8.2" font-family="sans-serif" font-size="14.00">dependencies</text>
<g id="clust1" class="cluster">
<title>cluster_HistoryModule</title>
<polygon fill="none" stroke="black" stroke-dasharray="1,5" points="8,-32.8 8,-157.8 308,-157.8 308,-32.8 8,-32.8"/>
</g>
<g id="clust4" class="cluster">
<title>cluster_HistoryModule_imports</title>
<polygon fill="none" stroke="black" points="186,-40.8 186,-92.8 300,-92.8 300,-40.8 186,-40.8"/>
</g>
<g id="clust2" class="cluster">
<title>cluster_HistoryModule_declarations</title>
<polygon fill="none" stroke="black" points="16,-40.8 16,-92.8 178,-92.8 178,-40.8 16,-40.8"/>
</g>
<!-- HistoryListComponent -->
<g id="node1" class="node">
<title>HistoryListComponent</title>
<polygon fill="#ffffb3" stroke="black" points="169.61,-84.8 24.39,-84.8 24.39,-48.8 169.61,-48.8 169.61,-84.8"/>
<text text-anchor="middle" x="97" y="-62.6" font-family="Times,serif" font-size="14.00">HistoryListComponent</text>
</g>
<!-- HistoryModule -->
<g id="node2" class="node">
<title>HistoryModule</title>
<polygon fill="#8dd3c7" stroke="black" points="220.55,-149.8 217.55,-153.8 196.55,-153.8 193.55,-149.8 119.45,-149.8 119.45,-113.8 220.55,-113.8 220.55,-149.8"/>
<text text-anchor="middle" x="170" y="-127.6" font-family="Times,serif" font-size="14.00">HistoryModule</text>
</g>
<!-- HistoryListComponent&#45;&gt;HistoryModule -->
<g id="edge1" class="edge">
<title>HistoryListComponent&#45;&gt;HistoryModule</title>
<path fill="none" stroke="black" d="M144.39,-84.91C144.39,-84.91 144.39,-103.79 144.39,-103.79"/>
<polygon fill="black" stroke="black" points="140.89,-103.79 144.39,-113.79 147.89,-103.79 140.89,-103.79"/>
</g>
<!-- SharedModule -->
<g id="node3" class="node">
<title>SharedModule</title>
<polygon fill="#8dd3c7" stroke="black" points="292.43,-84.8 289.43,-88.8 268.43,-88.8 265.43,-84.8 193.57,-84.8 193.57,-48.8 292.43,-48.8 292.43,-84.8"/>
<text text-anchor="middle" x="243" y="-62.6" font-family="Times,serif" font-size="14.00">SharedModule</text>
</g>
<!-- SharedModule&#45;&gt;HistoryModule -->
<g id="edge2" class="edge">
<title>SharedModule&#45;&gt;HistoryModule</title>
<path fill="none" stroke="black" d="M207.28,-84.91C207.28,-84.91 207.28,-103.79 207.28,-103.79"/>
<polygon fill="black" stroke="black" points="203.78,-103.79 207.28,-113.79 210.78,-103.79 203.78,-103.79"/>
</g>
</g>
</svg>
